<svg width="34" height="34" viewBox="0 0 34 34" fill="none" xmlns="http://www.w3.org/2000/svg">
<circle cx="17" cy="17" r="17" fill="#FAFAFA"/>
<g clip-path="url(#clip0_1_312)">
<path d="M21.9973 21.9998V21.9993H22V17.9651C22 15.9915 21.5751 14.4712 19.2679 14.4712C18.1587 14.4712 17.4144 15.0799 17.1105 15.6569H17.0784V14.6554H14.8908V21.9993H17.1687V18.3629C17.1687 17.4054 17.3502 16.4796 18.5359 16.4796C19.7042 16.4796 19.7216 17.5723 19.7216 18.4243V21.9998H21.9973Z" fill="#1A202C"/>
<path d="M11.1815 14.6562H13.4622V22.0001H11.1815V14.6562Z" fill="#1A202C"/>
<path d="M12.3209 11C11.5917 11 11 11.5917 11 12.3209C11 13.0501 11.5917 13.6542 12.3209 13.6542C13.0501 13.6542 13.6418 13.0501 13.6418 12.3209C13.6414 11.5917 13.0497 11 12.3209 11V11Z" fill="#1A202C"/>
</g>
<defs>
<clipPath id="clip0_1_312">
<rect width="11" height="11" fill="white" transform="translate(11 11)"/>
</clipPath>
</defs>
</svg>
